HIERARCHY
ROOT Hips
{
	OFFSET 0.000000 8.830580 0.000000
	CHANNELS 6 Xposition Yposition Zposition Zrotation Yrotation Xrotation 
	JOINT Spine
	{
		OFFSET 0.000000 0.010000 0.000000
		CHANNELS 3 Zrotation Yrotation Xrotation
		JOINT Spine1
		{
			OFFSET 0.000000 2.459130 0.000000
			CHANNELS 3 Zrotation Yrotation Xrotation
			JOINT Neck
			{
				OFFSET 0.000000 2.484630 0.000000
				CHANNELS 3 Zrotation Yrotation Xrotation
				JOINT Head_virtual
				{
					OFFSET 0.000000 0.000000 0.000000
					CHANNELS 3 Zrotation Yrotation Xrotation
					JOINT Head
					{
						OFFSET 0.000000 0.927525 0.000000
						CHANNELS 3 Zrotation Yrotation Xrotation
						End Site
						{
							OFFSET 0.000000 0.000000 0.000000
						}
					}
				}
				JOINT LeftUpArm_virtual
				{
					OFFSET 0.000000 0.000000 0.000000
					CHANNELS 3 Zrotation Yrotation Xrotation
					JOINT LeftUpArm
					{
						OFFSET 1.248820 0.000000 0.000000
						CHANNELS 3 Zrotation Yrotation Xrotation
						JOINT LeftForeArm
						{
							OFFSET 2.597580 0.000000 0.000000
							CHANNELS 3 Zrotation Yrotation Xrotation
							JOINT LeftHand
							{
								OFFSET 2.455420 0.000000 0.000000
								CHANNELS 3 Zrotation Yrotation Xrotation
								End Site
								{
									OFFSET 0.000000 0.000000 0.000000
								}
							}
						}
					}
				}
				JOINT RightUpArm_virtual
				{
					OFFSET -0.000000 -0.000000 -0.000000
					CHANNELS 3 Zrotation Yrotation Xrotation
					JOINT RightUpArm
					{
						OFFSET -1.248820 -0.000000 -0.000000
						CHANNELS 3 Zrotation Yrotation Xrotation
						JOINT RightForeArm
						{
							OFFSET -2.597580 -0.000000 -0.000000
							CHANNELS 3 Zrotation Yrotation Xrotation
							JOINT RightHand
							{
								OFFSET -2.455420 -0.000000 -0.000000
								CHANNELS 3 Zrotation Yrotation Xrotation
								End Site
								{
									OFFSET 0.000000 0.000000 0.000000
								}
							}
						}
					}
				}
			}
		}
	}
	JOINT LeftUpLeg
	{
		OFFSET 1.271939 0.000000 0.000000
		CHANNELS 3 Zrotation Yrotation Xrotation
		JOINT LeftLowLeg
		{
			OFFSET 0.000000 -4.342910 0.000000
			CHANNELS 3 Zrotation Yrotation Xrotation
			JOINT LeftFoot
			{
				OFFSET 0.000000 -4.487670 0.000000
				CHANNELS 3 Zrotation Yrotation Xrotation
				JOINT LeftToeBase
				{
					OFFSET 0.000000 0.000000 1.515070
					CHANNELS 3 Zrotation Yrotation Xrotation
					End Site
					{
						OFFSET 0.000000 0.000000 0.000000
					}
				}
			}
		}
	}
	JOINT RightUpLeg
	{
		OFFSET -1.271939 0.000000 0.000000
		CHANNELS 3 Zrotation Yrotation Xrotation
		JOINT RightLowLeg
		{
			OFFSET 0.000000 -4.342910 0.000000
			CHANNELS 3 Zrotation Yrotation Xrotation
			JOINT RightFoot
			{
				OFFSET 0.000000 -4.487670 0.000000
				CHANNELS 3 Zrotation Yrotation Xrotation
				JOINT RightToeBase
				{
					OFFSET 0.000000 0.000000 1.515070
					CHANNELS 3 Zrotation Yrotation Xrotation
					End Site
					{
						OFFSET 0.000000 0.000000 0.000000
					}
				}
			}
		}
	}
}
MOTION
Frames: 16
Frame Time: 0.041667
-18.475582 9.153985 33.882511 -175.076982 -3.496987 -172.118128 2.067162 -1.006460 -8.372621 2.726424 -0.660937 -8.892066 0.000000 0.000000 0.000000 -7.056346 -3.362528 26.884063 19.084586 14.034112 -82.996497 -23.233299 9.398550 -12.745100 19.496700 -14.472000 -30.329800 0.000000 -6.802800 0.000000 19.949800 12.400400 26.189301 17.855900 -8.724950 -16.657990 -6.266260 -0.409468 -55.757599 0.000000 17.811399 0.000000 -26.107000 -19.511900 49.157398 4.287475 2.688973 -6.154893 0.000000 0.000000 6.206060 -16.208891 5.310354 2.096402 0.000000 0.000000 -29.116500 5.751879 6.306192 -5.339301 0.000000 0.000000 7.647790 8.908846 -17.204888 5.095574 0.000000 0.000000 -37.367399 
-18.476065 9.154692 33.888634 -175.050293 -3.452668 -172.181194 2.124987 -0.989957 -8.286696 2.655147 -0.656655 -8.868498 0.000000 0.000000 0.000000 -6.753369 -4.357323 27.086926 19.512317 13.835723 -82.941398 -23.248600 9.375600 -12.709800 19.539700 -14.448000 -30.257401 0.000000 -6.644040 0.000000 19.998501 12.519400 26.329000 17.873301 -8.644630 -16.609985 -6.333330 -0.434629 -55.576900 0.000000 17.617001 0.000000 -26.299601 -19.593700 49.416500 4.311730 2.650715 -6.122746 0.000000 0.000000 6.207650 -16.208004 5.374304 2.104455 0.000000 0.000000 -29.139800 5.765685 6.422591 -5.321604 0.000000 0.000000 7.649530 8.938504 -17.275687 5.141429 0.000000 0.000000 -37.401800 
-18.476527 9.155198 33.894863 -175.050601 -3.420823 -172.239532 2.141892 -0.980073 -8.206229 2.608918 -0.652423 -8.781084 0.000000 0.000000 0.000000 -6.535115 -5.101308 27.208862 19.874969 13.702170 -82.965260 -23.236099 9.418960 -12.734300 19.475700 -14.475400 -30.252001 0.000000 -6.580880 0.000000 20.043699 12.506700 26.425600 17.879801 -8.654520 -16.613007 -6.348690 -0.358364 -55.476101 0.000000 17.440500 0.000000 -26.458799 -19.502399 49.514900 4.305212 2.643814 -6.102540 0.000000 0.000000 6.214660 -16.189951 5.416802 2.125597 0.000000 0.000000 -29.122900 5.755478 6.413396 -5.321055 0.000000 0.000000 7.681580 8.924889 -17.227686 5.175069 0.000000 0.000000 -37.430500 
-18.476851 9.155816 33.901107 -175.046569 -3.409540 -172.318686 2.139608 -0.982690 -8.094728 2.611433 -0.656412 -8.734088 0.000000 0.000000 0.000000 -6.322214 -5.828991 27.350157 20.098660 13.578474 -82.968361 -23.232500 9.448510 -12.714000 19.402000 -14.463500 -30.262100 0.000000 -6.577490 0.000000 20.022800 12.529400 26.389099 17.855000 -8.618020 -16.575989 -6.349120 -0.360223 -55.453098 0.000000 17.369400 0.000000 -26.586300 -19.402599 49.509499 4.307680 2.624177 -6.069699 0.000000 0.000000 6.229010 -16.172180 5.450791 2.156254 0.000000 0.000000 -29.133600 5.761286 6.389121 -5.313023 0.000000 0.000000 7.739350 8.909940 -17.214676 5.200467 0.000000 0.000000 -37.394699 
-18.476958 9.156222 33.907213 -175.049918 -3.440719 -172.399217 2.121807 -1.015349 -8.009796 2.632645 -0.689144 -8.636910 0.000000 0.000000 0.000000 -6.172270 -6.385707 27.451207 20.341889 13.458295 -82.972558 -23.231100 9.497760 -12.758300 19.310699 -14.473800 -30.174101 0.000000 -6.609570 0.000000 19.951000 12.525200 26.241600 17.811501 -8.575090 -16.559998 -6.310150 -0.357129 -55.534698 0.000000 17.374701 0.000000 -26.632799 -19.371099 49.593399 4.308076 2.588114 -6.050094 0.000000 0.000000 6.257310 -16.163215 5.451754 2.185993 0.000000 0.000000 -29.161600 5.761530 6.400449 -5.279570 0.000000 0.000000 7.751730 8.907342 -17.261965 5.217829 0.000000 0.000000 -37.359699 
-18.477355 9.156762 33.913225 -175.045260 -3.470354 -172.449356 2.142783 -1.007322 -7.935884 2.589418 -0.686240 -8.592371 0.000000 0.000000 0.000000 -6.009620 -6.890644 27.607726 20.425760 13.427361 -82.999714 -23.201401 9.493550 -12.728400 19.221300 -14.487200 -30.149200 0.000000 -6.657460 0.000000 19.902500 12.482100 26.176399 17.798201 -8.607100 -16.546997 -6.284560 -0.354521 -55.567402 0.000000 17.400400 0.000000 -26.593300 -19.382900 49.398800 4.309855 2.570313 -6.062552 0.000000 0.000000 6.289170 -16.138956 5.458546 2.214346 0.000000 0.000000 -29.152400 5.757121 6.523797 -5.253684 0.000000 0.000000 7.728680 8.936376 -17.376272 5.233140 0.000000 0.000000 -37.359800 
-18.477412 9.157097 33.919392 -175.043808 -3.494637 -172.504128 2.147918 -1.007272 -7.879085 2.560085 -0.689389 -8.508791 0.000000 0.000000 0.000000 -5.839788 -7.368583 27.729277 20.436391 13.404810 -82.984719 -23.179300 9.522580 -12.748500 19.142000 -14.564600 -30.123600 0.000000 -6.679660 0.000000 19.881901 12.406900 26.113600 17.796200 -8.628930 -16.601013 -6.281800 -0.321403 -55.568501 0.000000 17.417601 0.000000 -26.488300 -19.390100 49.146801 4.312447 2.549734 -6.067710 0.000000 0.000000 6.316040 -16.124723 5.460025 2.241375 0.000000 0.000000 -29.169400 5.757500 6.565339 -5.235267 0.000000 0.000000 7.723660 8.977790 -17.428841 5.242733 0.000000 0.000000 -37.410400 
-18.477047 9.157429 33.925077 -175.040733 -3.532173 -172.554390 2.148569 -1.004820 -7.832052 2.524512 -0.688583 -8.439394 0.000000 0.000000 0.000000 -5.743918 -7.649672 27.853463 20.529879 13.396608 -82.992523 -23.165701 9.501010 -12.712400 19.127701 -14.602100 -30.084600 0.000000 -6.698530 0.000000 19.843901 12.376000 26.111900 17.804800 -8.684740 -16.595001 -6.291480 -0.242777 -55.670601 0.000000 17.381201 0.000000 -26.431200 -19.337400 49.116100 4.320584 2.528015 -6.072162 0.000000 0.000000 6.333230 -16.127001 5.445935 2.273668 0.000000 0.000000 -29.169300 5.762654 6.584376 -5.212898 0.000000 0.000000 7.708560 8.964135 -17.472015 5.279679 0.000000 0.000000 -37.433001 
-18.476970 9.157581 33.931695 -175.053404 -3.547828 -172.604498 2.141242 -1.005009 -7.745169 2.496341 -0.688041 -8.402660 0.000000 0.000000 0.000000 -5.661956 -7.854245 27.926953 20.513615 13.390430 -82.953443 -23.132000 9.523350 -12.688400 19.080000 -14.652700 -30.064800 0.000000 -6.725720 0.000000 19.865601 12.357400 26.149200 17.793100 -8.723860 -16.605988 -6.292560 -0.175120 -55.537102 0.000000 17.364799 0.000000 -26.575701 -19.287100 49.325901 4.306922 2.531461 -6.075221 0.000000 0.000000 6.345720 -16.108182 5.435748 2.317125 0.000000 0.000000 -29.175700 5.746916 6.599301 -5.213287 0.000000 0.000000 7.726310 8.993288 -17.478201 5.279356 0.000000 0.000000 -37.456600 
-18.476554 9.157912 33.938212 -175.045874 -3.563790 -172.649167 2.143337 -1.004729 -7.666946 2.479246 -0.688988 -8.372159 0.000000 0.000000 0.000000 -5.617348 -7.972755 27.992039 20.531913 13.386412 -82.934388 -23.114201 9.531660 -12.666300 19.066700 -14.694900 -30.078501 0.000000 -6.736500 0.000000 19.879601 12.316500 26.144899 17.799801 -8.725370 -16.602997 -6.328230 -0.129273 -55.577599 0.000000 17.375401 0.000000 -26.536301 -19.374201 49.178299 4.315637 2.566170 -6.078619 0.000000 0.000000 6.350250 -16.114179 5.384833 2.358113 0.000000 0.000000 -29.196000 5.747163 6.724508 -5.211147 0.000000 0.000000 7.727270 9.013214 -17.581054 5.293871 0.000000 0.000000 -37.452801 
-18.477163 9.158339 33.944768 -175.045733 -3.542098 -172.672457 2.162000 -0.988883 -7.605200 2.442427 -0.676744 -8.355787 0.000000 0.000000 0.000000 -5.591859 -8.044765 28.059675 20.508728 13.390236 -82.922560 -23.086599 9.523070 -12.600900 19.062901 -14.697200 -30.117800 0.000000 -6.737560 0.000000 19.910601 12.312500 26.125099 17.777399 -8.689160 -16.558990 -6.340540 -0.144024 -55.491100 0.000000 17.353800 0.000000 -26.627501 -19.252899 49.154099 4.305570 2.594963 -6.089848 0.000000 0.000000 6.342350 -16.099322 5.390128 2.396804 0.000000 0.000000 -29.191200 5.730421 6.769148 -5.239918 0.000000 0.000000 7.744770 9.056213 -17.568271 5.306129 0.000000 0.000000 -37.421000 
-18.477135 9.158832 33.951888 -175.035802 -3.510064 -172.722634 2.161357 -0.982248 -7.525152 2.449164 -0.672188 -8.291214 0.000000 0.000000 0.000000 -5.582033 -8.070822 28.078744 20.462617 13.399589 -82.927452 -23.089001 9.533620 -12.606600 19.073999 -14.719000 -30.113800 0.000000 -6.734450 0.000000 19.942801 12.328400 26.096701 17.754900 -8.627820 -16.471985 -6.331880 -0.141746 -55.604801 0.000000 17.371099 0.000000 -26.673201 -19.105400 49.367901 4.316739 2.550047 -6.066690 0.000000 0.000000 6.318170 -16.095063 5.455126 2.423583 0.000000 0.000000 -29.190100 5.728766 6.795924 -5.254229 0.000000 0.000000 7.763230 9.041118 -17.544724 5.336998 0.000000 0.000000 -37.246599 
-18.476941 9.159253 33.960023 -175.023857 -3.446760 -172.755532 2.170107 -0.955259 -7.431639 2.445327 -0.648145 -8.250202 0.000000 0.000000 0.000000 -5.605141 -8.037093 28.076930 20.434928 13.395100 -82.942371 -23.053200 9.512280 -12.604700 19.027901 -14.686600 -30.133200 0.000000 -6.772860 0.000000 20.004601 12.324800 26.088800 17.728001 -8.568360 -16.394012 -6.324260 -0.186196 -55.392700 0.000000 17.408899 0.000000 -26.660101 -19.105499 49.084301 4.320272 2.592686 -6.077404 0.000000 0.000000 6.323990 -16.073514 5.482280 2.448708 0.000000 0.000000 -29.188900 5.727946 6.805765 -5.306367 0.000000 0.000000 7.814920 9.017431 -17.496067 5.386226 0.000000 0.000000 -37.230000 
-18.476643 9.159740 33.967951 -175.015386 -3.400286 -172.817050 2.161917 -0.939505 -7.317359 2.471016 -0.633798 -8.172223 0.000000 0.000000 0.000000 -5.646698 -7.996119 28.032556 20.391699 13.380029 -82.993086 -23.014299 9.528520 -12.624700 18.930799 -14.691800 -30.122299 0.000000 -6.826900 0.000000 20.077900 12.297200 26.007700 17.705799 -8.559580 -16.358002 -6.290180 -0.107087 -55.443699 0.000000 17.416100 0.000000 -26.708200 -19.012199 49.283501 4.328544 2.572065 -6.051870 0.000000 0.000000 6.313030 -16.066103 5.544682 2.478203 0.000000 0.000000 -29.194500 5.728626 6.837099 -5.304962 0.000000 0.000000 7.824570 9.015322 -17.471997 5.421485 0.000000 0.000000 -37.186199 
-18.476994 9.160319 33.977355 -175.008678 -3.359346 -172.859241 2.185176 -0.920284 -7.181141 2.458575 -0.620123 -8.136260 0.000000 0.000000 0.000000 -5.702123 -7.933747 28.006468 20.335875 13.366383 -83.054261 -22.942600 9.510130 -12.593700 18.804100 -14.641100 -30.112200 0.000000 -6.882420 0.000000 20.123100 12.260500 25.947700 17.685499 -8.527160 -16.345001 -6.239600 -0.120725 -55.120499 0.000000 17.463200 0.000000 -26.670601 -19.021400 49.127300 4.329937 2.530313 -6.069780 0.000000 0.000000 6.327160 -16.082723 5.618836 2.496402 0.000000 0.000000 -29.183300 5.721302 6.824835 -5.340793 0.000000 0.000000 7.849980 9.013396 -17.419013 5.468261 0.000000 0.000000 -37.176201 
-18.476404 9.160711 33.987340 -175.007639 -3.310712 -172.912802 2.166064 -0.905192 -7.020901 2.495575 -0.603316 -8.108552 0.000000 0.000000 0.000000 -5.761175 -7.885070 27.968915 20.291610 13.322421 -83.090674 -22.881500 9.467330 -12.609800 18.660900 -14.597700 -30.008699 0.000000 -6.910450 0.000000 20.175301 12.221900 25.785900 17.632601 -8.465830 -16.259003 -6.150100 -0.111695 -55.080502 0.000000 17.444099 0.000000 -26.686399 -18.941299 48.831799 4.330977 2.522226 -6.074697 0.000000 0.000000 6.333700 -16.076854 5.668786 2.529780 0.000000 0.000000 -29.167000 5.709315 6.947484 -5.350671 0.000000 0.000000 7.839080 9.017096 -17.478327 5.503221 0.000000 0.000000 -37.070400 
